<?xml version="1.0" encoding="utf-8"?>
<!-- Generator: Adobe Illustrator 24.1.3, SVG Export Plug-In . SVG Version: 6.00 Build 0)  -->
<svg version="1.1" id="Layer_1" xmlns="http://www.w3.org/2000/svg" xmlns:xlink="http://www.w3.org/1999/xlink" x="0px" y="0px"
	 viewBox="0 0 152.14 138.41" style="enable-background:new 0 0 152.14 138.41;" xml:space="preserve">
<style type="text/css">
	.st0{fill:#FFFFFF;}
	.st1{fill:#595959;}
	.st2{font-family:'TUOSBlake';}
	.st3{font-size:7px;}
	.st4{font-size:9px;}
</style>
<rect x="7.66" y="1.97" class="st0" width="135.96" height="135"/>
<path class="st1" d="M12.1,86.93v-2.16l0.48-4.08l0.36-2.04l0.48-1.92l0.48-1.92l0.72-1.93l0.72-1.79l0.72-1.8l0.96-1.8l0.96-1.68
	l1.08-1.56l1.08-1.68l1.2-1.44l1.32-1.56l2.76-2.76l1.44-1.2l1.56-1.2l1.56-1.2l1.68-0.96l1.68-1.08l1.68-0.84l1.8-0.84l1.92-0.72
	l1.8-0.6l1.92-0.6l2.04-0.36l1.92-0.36l2.04-0.36l2.16-0.12h4.08l2.04,0.12l2.04,0.36l2.04,0.36l1.92,0.36l1.92,0.6l1.92,0.6
	l1.8,0.72l1.8,0.84l1.8,0.84l1.68,1.08l1.68,0.96l1.56,1.2l1.56,1.2l1.44,1.2l2.76,2.76l1.32,1.56l1.2,1.44l1.08,1.68l1.08,1.56
	l0.96,1.68l1.68,3.6l0.72,1.79l0.72,1.93l0.48,1.92l0.48,1.92l0.36,2.04l0.24,2.04l0.12,2.04l0.12,2.16l-0.12,2.04l-0.12,2.04
	l-0.24,2.04l-0.36,2.04l-0.48,1.92l-0.48,1.92l-0.72,1.92l-0.72,1.8l-1.68,3.6l-0.96,1.68l-1.08,1.56l-1.08,1.68l-1.2,1.44
	l-1.32,1.56l-1.32,1.32l-1.44,1.44l-1.44,1.2l-1.56,1.2l-1.56,1.2l-1.68,0.96l-1.68,1.08l-3.6,1.68l-1.8,0.72l-1.92,0.6l-1.92,0.6
	l-1.92,0.36l-2.04,0.35l-2.04,0.37l-2.04,0.12h-4.08l-2.16-0.12l-2.04-0.37l-1.92-0.35l-2.04-0.36l-1.92-0.6l-1.8-0.6l-1.92-0.72
	l-1.8-0.84l-1.68-0.84l-1.68-1.08l-1.68-0.96l-1.56-1.2l-1.56-1.2l-1.44-1.2l-1.44-1.44l-1.32-1.32l-1.32-1.56l-1.2-1.44l-1.08-1.68
	l-1.08-1.56l-0.96-1.68l-0.96-1.8l-0.72-1.8l-0.72-1.8l-0.72-1.92l-0.48-1.92l-0.48-1.92l-0.36-2.04l-0.24-2.04l-0.24-2.04V86.93z
	 M12.94,88.97v-0.12l0.12,2.03l0.36,2.05l0.24,1.92l0.48,1.92l0.6,1.92l0.6,1.8l0.72,1.8l0.72,1.8l0.96,1.68l1.92,3.36l1.2,1.56
	h-0.12l1.2,1.44l1.32,1.44l1.32,1.44l1.32,1.32l1.44,1.2l1.56,1.2l1.56,1.08l1.56,1.07l1.68,0.97l1.68,0.84l1.8,0.84l1.8,0.72
	l1.8,0.6l1.92,0.48l1.92,0.48l2.04,0.36h-0.12l2.04,0.24l2.04,0.12l2.04,0.12l2.04-0.12l2.04-0.12l1.92-0.24l2.04-0.36l1.92-0.48
	l1.92-0.48h-0.12l1.92-0.6l1.8-0.72l1.8-0.84h-0.12l1.8-0.84l1.68-0.97l1.56-1.07l1.56-1.08l1.56-1.2l1.44-1.2l1.32-1.32l2.64-2.88
	h-0.12l1.2-1.44l1.2-1.56l0.96-1.68l0.96-1.68l0.84-1.68l0.84-1.8l0.72-1.8l0.6-1.8l0.6-1.92l0.36-1.92l0.36-1.92l0.24-2.05
	l0.24-2.03v0.12v-2.16v0.12v-2.16v0.11l-0.24-2.03l-0.24-2.04l-0.36-1.93l-0.36-1.91l-0.6-1.92l-0.6-1.8l-0.72-1.8l-0.84-1.8
	l-0.84-1.68l-0.96-1.68l-0.96-1.68l-1.2-1.56l-1.2-1.44h0.12l-1.32-1.44l-1.32-1.44l-1.32-1.32l-1.44-1.2l-1.56-1.2l-1.56-1.08
	l-1.56-1.08l-1.68-0.97l-1.8-0.83h0.12l-1.8-0.84l-1.8-0.72l-1.92-0.61h0.12l-1.92-0.47l-1.92-0.48l-2.04-0.36l-1.92-0.24
	l-2.04-0.12l-2.04-0.12l-2.04,0.12l-2.04,0.12l-2.04,0.24h0.12l-2.04,0.36l-1.92,0.48l-1.92,0.47l-1.8,0.61l-1.8,0.72l-1.8,0.84
	l-1.68,0.83l-1.68,0.97l-1.56,1.08l-1.56,1.08l-1.56,1.2l-1.44,1.2l-1.32,1.32l-1.32,1.44l-1.32,1.44l-1.2,1.44h0.12l-1.2,1.56
	l-1.92,3.36l-0.96,1.68l-0.72,1.8l-0.72,1.8l-0.6,1.8l-0.6,1.92l-0.48,1.91l-0.24,1.93l-0.36,2.04l-0.12,2.03v-0.11v2.16v-0.12
	V88.97z M12.94,88.97"/>
<path class="st1" d="M59.14,86.93l0.12-2.16l0.12-2.04l0.24-2.04l0.36-2.04l0.48-1.92l0.6-1.92l0.6-1.93l0.72-1.79l1.68-3.6
	l0.96-1.68l1.08-1.56l1.08-1.68l1.2-1.44l1.32-1.56l2.76-2.76l1.44-1.2l1.56-1.2l1.56-1.2l1.68-0.96l1.68-1.08l1.8-0.84l1.8-0.84
	l1.8-0.72l1.92-0.6l1.92-0.6l1.92-0.36l2.04-0.36l2.04-0.36l2.04-0.12h4.2l2.04,0.12l2.04,0.36l1.92,0.36l2.04,0.36l1.92,0.6
	l1.8,0.6l1.92,0.72l1.8,0.84l1.68,0.84l1.68,1.08l1.68,0.96l1.56,1.2l1.56,1.2l1.44,1.2l1.44,1.44l1.32,1.32l1.32,1.56l1.2,1.44
	l1.08,1.68l1.08,1.56l0.96,1.68l0.96,1.8l0.72,1.8l0.84,1.79l0.6,1.93l0.48,1.92l0.48,1.92l0.36,2.04l0.24,2.04l0.24,2.04v4.2
	l-0.24,2.04l-0.24,2.04l-0.36,2.04l-0.48,1.92l-0.48,1.92l-0.6,1.92l-0.84,1.8l-0.72,1.8l-0.96,1.8l-0.96,1.68l-1.08,1.56
	l-1.08,1.68l-1.2,1.44l-1.32,1.56l-1.32,1.32l-1.44,1.44l-1.44,1.2l-1.56,1.2l-1.56,1.2l-1.68,0.96l-1.68,1.08l-1.68,0.84l-1.8,0.84
	l-1.92,0.72l-1.8,0.6l-1.92,0.6l-2.04,0.36l-1.92,0.35l-2.04,0.37l-2.04,0.12h-4.2l-2.04-0.12l-2.04-0.37l-2.04-0.35l-1.92-0.36
	l-1.92-0.6l-1.92-0.6l-1.8-0.72l-3.6-1.68l-1.68-1.08l-1.68-0.96l-1.56-1.2l-1.56-1.2l-1.44-1.2l-1.44-1.44l-1.32-1.32l-1.32-1.56
	l-1.2-1.44l-1.08-1.68l-1.08-1.56l-0.96-1.68l-1.68-3.6l-0.72-1.8l-0.6-1.92l-0.6-1.92l-0.48-1.92l-0.36-2.04l-0.24-2.04l-0.12-2.04
	L59.14,86.93z M59.98,88.97v-0.12l0.24,2.03l0.24,2.05l0.36,1.92l0.36,1.92l0.6,1.92l0.6,1.8l0.72,1.8l0.84,1.8l0.84,1.68l0.96,1.68
	l1.08,1.68H66.7l1.2,1.56l1.2,1.44l1.2,1.44l1.32,1.44l1.44,1.32h-0.12l1.56,1.2h-0.12l1.56,1.2l1.56,1.08l1.68,1.07h-0.12
	l1.68,0.97l1.8,0.84l1.68,0.84l1.8,0.72l1.92,0.6l1.92,0.48h-0.12l2.04,0.48h-0.12l2.04,0.36l1.92,0.24l2.04,0.12l2.04,0.12
	l2.04-0.12l2.04-0.12l2.04-0.24l1.92-0.36l1.92-0.48l1.92-0.48l1.8-0.6l1.8-0.72l1.8-0.84l1.68-0.84l1.68-0.97l1.56-1.07l1.56-1.08
	l1.56-1.2l1.44-1.2l1.32-1.32l2.64-2.88l1.2-1.44l1.08-1.56l1.92-3.36l0.96-1.68l0.72-1.8l0.72-1.8l0.72-1.8h-0.12l0.6-1.92
	l0.48-1.92l0.36-1.92l0.24-2.05l0.12-2.03v0.12v-2.16v0.12v-2.16v0.11l-0.12-2.03l-0.24-2.04l-0.36-1.93l-0.48-1.91l-0.6-1.92h0.12
	l-1.44-3.6l-0.72-1.8l-0.96-1.68l-1.92-3.36l-1.08-1.56l-1.2-1.44l-1.32-1.44l-1.32-1.44l-1.32-1.32l-1.44-1.2l-1.56-1.2l-1.56-1.08
	l-1.56-1.08l-1.68-0.97l-1.68-0.83l-1.8-0.84l-1.8-0.72l-1.8-0.61l-1.92-0.47l-1.92-0.48l-1.92-0.36l-2.04-0.24l-2.04-0.12
	l-2.04-0.12l-2.04,0.12l-2.04,0.12l-1.92,0.24l-2.04,0.36h0.12l-2.04,0.48l-1.8,0.47l-1.92,0.61l-1.8,0.72l-1.68,0.84l-1.8,0.83
	l-1.68,0.97h0.12l-1.68,1.08l-1.56,1.08l-1.56,1.2h0.12l-1.56,1.2h0.12l-1.44,1.32l-1.32,1.44l-1.2,1.44l-1.2,1.44l-1.2,1.56h0.12
	l-1.08,1.68l-0.96,1.68l-0.84,1.68l-0.84,1.8l-0.72,1.8l-0.6,1.8l-0.6,1.92l-0.36,1.91l-0.36,1.93l-0.24,2.04l-0.24,2.03v-0.11v2.16
	v-0.12V88.97z M59.98,88.97"/>
<path class="st1" d="M35.74,49.61v-2.04l0.24-2.04l0.24-2.04l0.36-2.04l0.48-1.92l0.48-1.92l0.6-1.92l0.84-1.81l0.72-1.79l0.96-1.8
	l0.96-1.68l1.08-1.68l1.08-1.56l1.2-1.56l1.32-1.44l1.32-1.44l1.44-1.32l1.44-1.32l1.56-1.2l1.56-1.08l1.68-1.08l1.68-0.96
	l1.68-0.84l1.8-0.84l1.92-0.72l1.8-0.72l1.92-0.48l2.04-0.49l1.92-0.35l2.04-0.24l2.04-0.12l2.16-0.12l2.04,0.12l2.04,0.12
	l2.04,0.24l2.04,0.35l1.92,0.49l1.92,0.48l1.92,0.72l1.8,0.72l3.6,1.68l1.68,0.96l1.68,1.08l1.56,1.08l1.56,1.2l1.44,1.32l1.44,1.32
	l1.32,1.44l1.32,1.44l1.2,1.56l1.08,1.56l1.08,1.68l0.96,1.68l0.84,1.8l0.84,1.79l0.72,1.81l0.6,1.92l0.6,1.92l0.48,1.92l0.36,2.04
	l0.24,2.04l0.12,2.04l0.12,2.04l-0.12,2.04l-0.12,2.16l-0.24,2.04l-0.36,1.92l-0.48,2.04l-0.6,1.92l-0.6,1.8l-0.72,1.92l-0.84,1.8
	l-0.84,1.68l-0.96,1.68l-1.08,1.68l-1.08,1.56l-1.2,1.56l-1.32,1.44l-1.32,1.44l-1.44,1.32l-1.44,1.32l-1.56,1.2l-1.56,1.08
	l-1.68,1.08l-1.68,0.96l-1.8,0.96l-3.6,1.44l-1.92,0.72l-1.92,0.48l-1.92,0.48l-2.04,0.36l-2.04,0.24l-2.04,0.24h-4.2l-2.04-0.24
	l-2.04-0.24l-1.92-0.36l-2.04-0.48l-1.92-0.48l-1.8-0.72l-1.92-0.72l-1.8-0.72l-3.36-1.92l-1.68-1.08l-1.56-1.08l-1.56-1.2
	l-1.44-1.32l-1.44-1.32l-1.32-1.44l-1.32-1.44l-1.2-1.56l-1.08-1.56l-1.08-1.68l-1.92-3.36l-0.72-1.8l-0.84-1.92l-0.6-1.8
	l-0.48-1.92l-0.48-2.04l-0.36-1.92l-0.24-2.04l-0.24-2.16V49.61z M36.58,51.65l0.12,2.04l0.24,2.04v-0.12l0.36,2.04l0.48,1.92
	l0.6,1.92h-0.12l1.44,3.6l0.72,1.79l0.96,1.69l0.96,1.68l0.96,1.56l1.08,1.56l1.2,1.56l1.32,1.44l2.64,2.64l1.44,1.32l1.56,1.2
	v-0.12l1.56,1.2l1.56,0.96l1.68,0.96l1.68,0.96l1.8,0.72l1.8,0.72l1.8,0.6l1.92,0.6l1.92,0.48l1.92,0.24l2.04,0.36l2.04,0.12h4.08
	l2.04-0.12l1.92-0.36l2.04-0.24l1.92-0.48l1.8-0.6l1.92-0.6l1.8-0.72l1.68-0.72l1.8-0.96l1.68-0.96h-0.12l1.68-0.96l1.56-1.2v0.12
	l1.56-1.2h-0.12l1.56-1.32h-0.12l1.44-1.32l1.32-1.32l1.2-1.44l1.2-1.56l1.2-1.56h-0.12l1.08-1.56l0.96-1.68l0.84-1.69l0.84-1.79
	l0.72-1.8l0.6-1.8l0.6-1.92l0.36-1.92l0.36-2.04v0.12l0.24-2.04l0.24-2.04v-4.08l-0.24-2.04l-0.24-1.92l-0.36-2.04l-0.36-1.92
	l-0.6-1.8l-0.6-1.92l-0.72-1.8l-0.84-1.8v0.12l-0.84-1.8l-0.96-1.68l-1.08-1.56h0.12l-1.2-1.56l-1.2-1.56l-1.2-1.44l-1.32-1.32
	l-1.44-1.32h0.12l-1.56-1.33l0.12,0.13l-1.56-1.2l-1.56-1.2l-1.68-0.96h0.12l-1.68-0.96l-1.8-0.84l-1.68-0.84l-1.8-0.72l-1.92-0.6
	l-1.8-0.6l-1.92-0.36l-2.04-0.36l-1.92-0.24l-2.04-0.25h-4.08l-2.04,0.25l-2.04,0.24l-1.92,0.36l-1.92,0.36l-1.92,0.6l-1.8,0.6
	l-1.8,0.72l-1.8,0.84l-1.68,0.84l-1.68,0.96l-1.56,0.96l-1.56,1.2l-1.56,1.2v-0.13l-1.44,1.33l-2.64,2.64l-1.32,1.44l-1.2,1.56
	l-1.08,1.56l-0.96,1.56l-0.96,1.68l-0.96,1.8v-0.12l-0.72,1.8l-0.72,1.8l-0.72,1.92h0.12l-0.6,1.8l-0.48,1.92l-0.36,2.04l-0.24,1.92
	l-0.12,2.04V51.65z M36.58,51.65"/>
<rect x="51.1" y="65.45" class="st0" width="50.16" height="14.16"/>
<text transform="matrix(1 0 0 1 65.4352 36.8567)" class="st2 st3">Society</text>
<text transform="matrix(1 0 0 1 99.7023 97.3128)" class="st2 st3">Economy</text>
<text transform="matrix(1 0 0 1 17.5186 97.3128)" class="st2 st3">Environment</text>
<text transform="matrix(1 0 0 1 51.1025 74.1699)" class="st2 st4">Sustainability</text>
</svg>
